<svg width="68" height="21" viewBox="0 0 68 21" fill="none" xmlns="http://www.w3.org/2000/svg">
<path d="M2 19L9.47715 10.4324C10.6235 9.11888 12.6443 9.05584 13.8703 10.2954L20.3471 16.8436C21.5213 18.0307 23.4387 18.0307 24.6129 16.8436L31.2271 10.1564C32.4013 8.96932 34.3187 8.96932 35.4929 10.1564L42.1071 16.8436C43.2813 18.0307 45.1987 18.0307 46.3729 16.8436L52.9871 10.1564C54.1613 8.96932 56.0787 8.96932 57.2529 10.1564L66 19" stroke="#FFFFFF" stroke-width="3" stroke-linecap="round"/>
<path d="M2 12L9.47715 3.43244C10.6235 2.11888 12.6443 2.05584 13.8703 3.29538L20.3471 9.84355C21.5213 11.0307 23.4387 11.0307 24.6129 9.84355L31.2271 3.15645C32.4013 1.96932 34.3187 1.96932 35.4929 3.15645L42.1071 9.84355C43.2813 11.0307 45.1987 11.0307 46.3729 9.84355L52.9871 3.15645C54.1613 1.96932 56.0787 1.96932 57.2529 3.15645L66 12" stroke="#FFFFFF" stroke-width="3" stroke-linecap="round"/>
</svg>